<?xml version="1.0" encoding="UTF-8" standalone="no"?>
<!DOCTYPE svg PUBLIC "-//W3C//DTD SVG 1.1//EN" "http://www.w3.org/Graphics/SVG/1.1/DTD/svg11.dtd">
<svg width="100%" height="100%" viewBox="0 0 1024 1024" version="1.1" xmlns="http://www.w3.org/2000/svg" xmlns:xlink="http://www.w3.org/1999/xlink" xml:space="preserve" xmlns:serif="http://www.serif.com/" style="fill-rule:evenodd;clip-rule:evenodd;stroke-linejoin:round;stroke-miterlimit:2;">
    <g transform="matrix(1.14541,0,0,1.22635,42.3803,42.9222)">
        <rect x="-37" y="-35" width="894" height="835"/>
    </g>
    <g transform="matrix(1.075,0,0,1.075,82,82)">
        <path d="M759.813,232.262C712.063,166.112 644.525,115.262 565.838,88.275C391.351,128.6 261.225,284.85 261.225,471.588C261.225,500.6 264.475,528.85 270.424,556.088C297.962,365.663 461.762,219.351 659.825,219.351C694.413,219.35 727.875,223.876 759.813,232.262Z" style="fill:url(#_Linear1);fill-rule:nonzero;"/>
        <path d="M741.5,121.575C678.488,58.562 596.875,15.438 507.351,0C326.2,73.776 213.037,264.85 245.437,466.224C250.463,497.512 258.888,527.4 270.05,555.712C266.649,345.612 417.874,159.412 631.451,125.012C668.726,119.012 705.612,118.087 741.5,121.575Z" style="fill:url(#_Linear2);fill-rule:nonzero;"/>
        <path d="M565.851,88.275C391.363,128.6 261.238,284.85 261.238,471.588C261.238,499.9 264.362,527.451 270.05,554.063C267.487,344.638 418.438,159.314 631.451,125.012C634.775,124.474 638.089,124.2 641.413,123.738C617.7,109.475 592.474,97.4 565.851,88.275Z" style="fill:url(#_Linear3);fill-rule:nonzero;"/>
        <path d="M510.55,53.425C439.401,22.963 359.687,14.538 282.525,31C160.288,148.975 130.762,339.563 221.9,491.425C236.038,515.038 252.488,536.412 270.599,555.637C200.073,387.375 261.861,188.4 422.924,91.725C451.05,74.85 480.513,62.201 510.55,53.425Z" style="fill:url(#_Linear4);fill-rule:nonzero;"/>
        <path d="M444.063,32.213C300.712,120.75 216.988,289.501 245.437,466.224C246.8,474.637 248.436,482.925 250.274,491.125C217.149,339.074 282.087,176.274 422.924,91.725C451.049,74.85 480.511,62.201 510.548,53.438C489.087,44.237 466.8,37.313 444.063,32.213Z" style="fill:url(#_Linear5);fill-rule:nonzero;"/>
        <path d="M40.187,567.75C87.937,633.901 155.475,684.75 234.162,711.737C408.649,671.412 538.775,515.163 538.775,328.425C538.775,299.413 535.525,271.162 529.576,243.925C502.038,434.35 338.238,580.663 140.201,580.663C105.587,580.663 72.125,576.137 40.187,567.75Z" style="fill:url(#_Linear6);fill-rule:nonzero;"/>
        <path d="M58.5,678.438C121.513,741.451 203.125,784.562 292.651,800C473.826,726.237 586.963,535.15 554.563,333.787C549.537,302.499 541.112,272.611 529.95,244.299C533.351,454.399 382.126,640.599 168.549,674.999C131.3,681 94.388,681.926 58.5,678.438Z" style="fill:url(#_Linear7);fill-rule:nonzero;"/>
        <path d="M234.151,711.725C408.638,671.4 538.764,515.15 538.764,328.412C538.764,300.1 535.639,272.549 529.952,245.937C532.527,455.375 381.564,640.674 168.551,674.999C165.226,675.537 161.913,675.811 158.588,676.273C182.325,690.538 207.526,702.613 234.151,711.725Z" style="fill:url(#_Linear8);fill-rule:nonzero;"/>
        <path d="M289.475,746.588C360.588,777.063 440.3,785.475 517.475,769.012C639.712,651.038 669.238,460.45 578.126,308.587C563.962,284.986 547.512,263.599 529.401,244.374C599.938,412.636 538.164,611.598 377.076,708.286C348.95,725.163 319.512,737.812 289.475,746.588Z" style="fill:url(#_Linear9);fill-rule:nonzero;"/>
        <path d="M355.937,767.8C499.299,679.263 583.012,510.525 554.574,333.787C553.211,325.387 551.599,317.086 549.737,308.899C582.863,460.937 517.924,623.749 377.087,708.287C348.962,725.163 319.525,737.812 289.488,746.575C310.913,755.787 333.2,762.7 355.937,767.8Z" style="fill:url(#_Linear10);fill-rule:nonzero;"/>
    </g>
    <defs>
        <linearGradient id="_Linear1" x1="0" y1="0" x2="1" y2="0" gradientUnits="userSpaceOnUse" gradientTransform="matrix(5.36065e-14,-875.461,875.461,5.36065e-14,510.518,657.272)"><stop offset="0" style="stop-color:rgb(41,211,218);stop-opacity:1"/><stop offset="0.52" style="stop-color:rgb(0,119,255);stop-opacity:1"/><stop offset="1" style="stop-color:rgb(6,64,147);stop-opacity:1"/><stop offset="1" style="stop-color:rgb(8,70,152);stop-opacity:1"/></linearGradient>
        <linearGradient id="_Linear2" x1="0" y1="0" x2="1" y2="0" gradientUnits="userSpaceOnUse" gradientTransform="matrix(305.249,-890.474,890.474,305.249,357.895,611.403)"><stop offset="0" style="stop-color:rgb(224,179,134);stop-opacity:1"/><stop offset="0.01" style="stop-color:rgb(224,179,134);stop-opacity:1"/><stop offset="0.52" style="stop-color:rgb(218,73,140);stop-opacity:1"/><stop offset="1" style="stop-color:rgb(150,20,132);stop-opacity:1"/></linearGradient>
        <linearGradient id="_Linear3" x1="0" y1="0" x2="1" y2="0" gradientUnits="userSpaceOnUse" gradientTransform="matrix(74.4248,-385.974,385.974,74.4248,406.149,512.999)"><stop offset="0" style="stop-color:rgb(224,179,134);stop-opacity:1"/><stop offset="0.01" style="stop-color:rgb(224,179,134);stop-opacity:1"/><stop offset="0.52" style="stop-color:rgb(218,73,140);stop-opacity:1"/><stop offset="1" style="stop-color:rgb(150,20,132);stop-opacity:1"/></linearGradient>
        <linearGradient id="_Linear4" x1="0" y1="0" x2="1" y2="0" gradientUnits="userSpaceOnUse" gradientTransform="matrix(373.374,-1006.52,1006.52,373.374,271.63,326.274)"><stop offset="0" style="stop-color:rgb(41,211,218);stop-opacity:1"/><stop offset="0.52" style="stop-color:rgb(0,119,255);stop-opacity:1"/><stop offset="1" style="stop-color:rgb(6,64,147);stop-opacity:1"/><stop offset="1" style="stop-color:rgb(8,70,152);stop-opacity:1"/></linearGradient>
        <linearGradient id="_Linear5" x1="0" y1="0" x2="1" y2="0" gradientUnits="userSpaceOnUse" gradientTransform="matrix(-22.7624,-499.486,499.486,-22.7624,384.213,427.399)"><stop offset="0" style="stop-color:rgb(41,211,218);stop-opacity:1"/><stop offset="0.52" style="stop-color:rgb(0,119,255);stop-opacity:1"/><stop offset="1" style="stop-color:rgb(6,64,147);stop-opacity:1"/><stop offset="1" style="stop-color:rgb(8,70,152);stop-opacity:1"/></linearGradient>
        <linearGradient id="_Linear6" x1="0" y1="0" x2="1" y2="0" gradientUnits="userSpaceOnUse" gradientTransform="matrix(5.36049e-14,875.434,-875.434,5.36049e-14,289.482,142.798)"><stop offset="0" style="stop-color:rgb(41,211,218);stop-opacity:1"/><stop offset="0.52" style="stop-color:rgb(0,119,255);stop-opacity:1"/><stop offset="1" style="stop-color:rgb(6,64,147);stop-opacity:1"/><stop offset="1" style="stop-color:rgb(8,70,152);stop-opacity:1"/></linearGradient>
        <linearGradient id="_Linear7" x1="0" y1="0" x2="1" y2="0" gradientUnits="userSpaceOnUse" gradientTransform="matrix(-305.237,890.473,-890.473,-305.237,442.1,188.66)"><stop offset="0" style="stop-color:rgb(224,179,134);stop-opacity:1"/><stop offset="0.01" style="stop-color:rgb(224,179,134);stop-opacity:1"/><stop offset="0.52" style="stop-color:rgb(218,73,140);stop-opacity:1"/><stop offset="1" style="stop-color:rgb(150,20,132);stop-opacity:1"/></linearGradient>
        <linearGradient id="_Linear8" x1="0" y1="0" x2="1" y2="0" gradientUnits="userSpaceOnUse" gradientTransform="matrix(-74.3748,385.936,-385.936,-74.3748,393.82,287.074)"><stop offset="0" style="stop-color:rgb(224,179,134);stop-opacity:1"/><stop offset="0.01" style="stop-color:rgb(224,179,134);stop-opacity:1"/><stop offset="0.52" style="stop-color:rgb(218,73,140);stop-opacity:1"/><stop offset="1" style="stop-color:rgb(150,20,132);stop-opacity:1"/></linearGradient>
        <linearGradient id="_Linear9" x1="0" y1="0" x2="1" y2="0" gradientUnits="userSpaceOnUse" gradientTransform="matrix(-373.349,1006.5,-1006.5,-373.349,528.383,473.775)"><stop offset="0" style="stop-color:rgb(41,211,218);stop-opacity:1"/><stop offset="0.52" style="stop-color:rgb(0,119,255);stop-opacity:1"/><stop offset="1" style="stop-color:rgb(6,64,147);stop-opacity:1"/><stop offset="1" style="stop-color:rgb(8,70,152);stop-opacity:1"/></linearGradient>
        <linearGradient id="_Linear10" x1="0" y1="0" x2="1" y2="0" gradientUnits="userSpaceOnUse" gradientTransform="matrix(22.6999,499.499,-499.499,22.6999,415.836,372.647)"><stop offset="0" style="stop-color:rgb(41,211,218);stop-opacity:1"/><stop offset="0.52" style="stop-color:rgb(0,119,255);stop-opacity:1"/><stop offset="1" style="stop-color:rgb(6,64,147);stop-opacity:1"/><stop offset="1" style="stop-color:rgb(8,70,152);stop-opacity:1"/></linearGradient>
    </defs>
</svg>
